<?xml version="1.0" standalone="no"?><!DOCTYPE svg PUBLIC "-//W3C//DTD SVG 1.1//EN" "http://www.w3.org/Graphics/SVG/1.1/DTD/svg11.dtd"><svg t="1682616011329" class="icon" viewBox="0 0 1024 1024" version="1.1" xmlns="http://www.w3.org/2000/svg" p-id="6573" xmlns:xlink="http://www.w3.org/1999/xlink" width="200" height="200"><path d="M490.666667 981.333333a440.906667 440.906667 0 0 1-173.773334-35.46 453.766667 453.766667 0 0 1-238.766666-238.766666 443.52 443.52 0 0 1 0-347.546667 453.766667 453.766667 0 0 1 238.766666-238.766667A440.906667 440.906667 0 0 1 490.666667 85.333333a21.333333 21.333333 0 0 1 21.333333 21.333334v405.333333h405.333333a21.333333 21.333333 0 0 1 21.333334 21.333333 440.906667 440.906667 0 0 1-35.46 173.773334 453.766667 453.766667 0 0 1-238.766667 238.766666A440.906667 440.906667 0 0 1 490.666667 981.333333zM469.333333 128.553333C255.72 139.693333 85.333333 316.993333 85.333333 533.333333c0 223.5 181.833333 405.333333 405.333334 405.333334 216.34 0 393.64-170.386667 404.78-384H490.666667a21.333333 21.333333 0 0 1-21.333334-21.333334zM960 469.333333H576a21.333333 21.333333 0 0 1-21.333333-21.333333V64a21.333333 21.333333 0 0 1 21.333333-21.333333 405.373333 405.373333 0 0 1 405.333333 405.333333 21.333333 21.333333 0 0 1-21.333333 21.333333z m-362.666667-42.666666h340.666667c-5.333333-87.94-43.113333-172.666667-105.58-235.113334S685.273333 91.273333 597.333333 86z" fill="#ffffff" p-id="6574"></path></svg>